<svg width="32" height="32" viewBox="0 0 32 32" fill="none" xmlns="http://www.w3.org/2000/svg">
<path d="M7 22.53V17.4418C7 15.7933 8.56493 14.3761 10.6021 14.3761C12.6392 14.3761 14.2041 15.7933 14.2041 17.4418V22.53C14.2041 23.0125 14.5015 23.4429 15.1137 23.7052C15.7315 23.97 16.4607 23.9606 17.0791 23.6098C17.563 23.3354 17.7959 22.9224 17.7959 22.53V6.06576C17.7959 4.41726 19.3607 3 21.398 3C23.4351 3 25 4.41727 25 6.06576V22.53C25 25.0336 23.4985 27.3352 21.0701 28.7125C18.2296 30.3235 14.6969 30.3561 11.8752 29.1809C9.05639 28.0071 7 25.6565 7 22.53Z" fill="#F9FFF2"/>
<path d="M15.1137 22.7052C14.5015 22.4429 14.2041 22.0125 14.2041 21.53V16.4418C14.2041 14.7933 12.6392 13.3761 10.6021 13.3761C8.56493 13.3761 7 14.7933 7 16.4418V21.53C7 24.6565 9.05639 27.0071 11.8752 28.1809C14.6969 29.3561 18.2296 29.3235 21.0701 27.7125C23.4985 26.3352 25 24.0336 25 21.53V5.06576C25 3.41727 23.4351 2 21.398 2C19.3607 2 17.7959 3.41726 17.7959 5.06576V21.53C17.7959 21.9224 17.563 22.3354 17.0791 22.6098C16.4607 22.9606 15.7315 22.97 15.1137 22.7052ZM15.1137 22.7052L15.2348 22.4161" stroke="#0A3802"/>
<path d="M17.0145 26.4376C16.9487 26.6909 17.1121 26.9412 17.3845 26.9697C17.9007 27.0238 18.4258 27.0055 18.9414 26.9143C19.621 26.7945 20.2704 26.5507 20.8505 26.1979C21.4305 25.8451 21.9295 25.3906 22.3172 24.8615C22.606 24.4675 22.8287 24.0382 22.9787 23.5884C23.0642 23.332 22.8827 23.0828 22.6052 23.0386C22.3268 22.9943 21.9176 22.937 21.8244 23.1922C21.7057 23.5175 21.5391 23.8282 21.3286 24.1154C21.0186 24.5385 20.6196 24.902 20.1558 25.184C19.6919 25.4661 19.1728 25.661 18.6293 25.7569C18.2498 25.8239 17.8641 25.8417 17.4834 25.8104C17.21 25.788 17.0803 26.1843 17.0145 26.4376Z" fill="#0A3802"/>
</svg>
