<svg width="30" height="44" viewBox="0 0 30 44" fill="none" xmlns="http://www.w3.org/2000/svg">
<g clip-path="url(#clip0_781_14)">
<path d="M0.5 31.6033V23.5C0.5 20.8746 3.02127 18.6175 6.30332 18.6175C9.58537 18.6175 12.1066 20.8746 12.1066 23.5V31.6033C12.1066 32.3718 12.5858 33.0572 13.572 33.475C14.5674 33.8967 15.7422 33.8817 16.7385 33.3231C17.5181 32.8861 17.8934 32.2283 17.8934 31.6033V5.38251C17.8934 2.75712 20.4145 0.5 23.6967 0.5C26.9787 0.5 29.5 2.75713 29.5 5.38251V31.6033C29.5 35.5906 27.0809 39.2561 23.1685 41.4495C18.5922 44.0153 12.9006 44.0671 8.3545 42.1956C3.81307 40.3261 0.5 36.5826 0.5 31.6033Z" fill="#F9FFF2"/>
<path d="M13.572 33.475C12.5858 33.0572 12.1066 32.3718 12.1066 31.6033V23.5C12.1066 20.8746 9.58537 18.6175 6.30332 18.6175C3.02127 18.6175 0.5 20.8746 0.5 23.5V31.6033C0.5 36.5826 3.81307 40.3261 8.3545 42.1956C12.9006 44.0671 18.5922 44.0153 23.1685 41.4495C27.0809 39.2561 29.5 35.5906 29.5 31.6033V5.38251C29.5 2.75713 26.9787 0.5 23.6967 0.5C20.4145 0.5 17.8934 2.75712 17.8934 5.38251V31.6033C17.8934 32.2283 17.5181 32.8861 16.7385 33.3231C15.7422 33.8817 14.5674 33.8967 13.572 33.475ZM13.572 33.475L13.7671 33.0146" stroke="#0A3802"/>
<path d="M17.0218 39.1564C16.9231 39.5363 17.1681 39.9118 17.5767 39.9546C18.351 40.0357 19.1386 40.0082 19.9121 39.8715C20.9315 39.6917 21.9055 39.3261 22.7757 38.7969C23.6457 38.2677 24.3942 37.5859 24.9758 36.7922C25.4089 36.2012 25.743 35.5573 25.968 34.8826C26.0963 34.498 25.824 34.1241 25.4078 34.0579C24.9901 33.9914 24.3764 33.9055 24.2366 34.2883C24.0585 34.7762 23.8086 35.2422 23.4929 35.673C23.0278 36.3077 22.4294 36.853 21.7336 37.276C21.0378 37.6992 20.2591 37.9915 19.4439 38.1354C18.8747 38.2358 18.2961 38.2626 17.725 38.2156C17.315 38.182 17.1204 38.7765 17.0218 39.1564Z" fill="#0A3802"/>
</g>
<defs>
<clipPath id="clip0_781_14">
<rect width="30" height="44" fill="white"/>
</clipPath>
</defs>
</svg>
