<svg width="64" height="64" viewBox="0 0 64 64" fill="none" xmlns="http://www.w3.org/2000/svg">
<path d="M16.524 59H4.92576V22.2531H16.5415V59H16.524ZM10.7249 17.2344C7.00437 17.2344 4 14.2609 4 10.6172C4 6.97344 7.00437 4 10.7249 4C14.4279 4 17.4498 6.97344 17.4498 10.6172C17.4498 14.2781 14.4454 17.2344 10.7249 17.2344ZM60 59H48.4017V41.125C48.4017 36.8625 48.3144 31.3797 42.3755 31.3797C36.3319 31.3797 35.4061 36.0203 35.4061 40.8156V59H23.8079V22.2531H34.9345V27.2719H35.0917C36.6463 24.3844 40.4367 21.3422 46.0786 21.3422C57.8166 21.3422 60 28.9562 60 38.8562V59Z" fill="black"/>
</svg>
