<svg width="45" height="33" viewBox="0 0 45 33" fill="none" xmlns="http://www.w3.org/2000/svg">
<g clip-path="url(#clip0_781_10)">
<path fill-rule="evenodd" clip-rule="evenodd" d="M17.9971 3.0752C17.9971 1.41834 16.654 0.0751953 14.9971 0.0751953C13.3403 0.0751953 11.9971 1.41834 11.9971 3.0752V23.5691C11.9971 24.2718 11.622 25.0388 10.8066 25.5569C9.76955 26.2157 8.52312 26.2207 7.51416 25.7363C6.51207 25.2552 6 24.4415 6 23.5691V19.8432C6 18.1864 4.65685 16.8432 3 16.8432C1.34315 16.8432 0 18.1864 0 19.8432V23.5691C0 27.134 2.20648 29.8439 4.9175 31.1453C7.62165 32.4435 11.0829 32.4898 14.024 30.6213C16.4427 29.0847 17.9971 26.4738 17.9971 23.5691V3.0752Z" fill="black"/>
<path d="M8.39944 29.1732C8.26647 29.4455 8.38523 29.7621 8.67702 29.8505C9.19582 30.0075 9.73844 30.0925 10.2868 30.1018C11.021 30.1142 11.7502 29.9905 12.431 29.7382C13.1117 29.4859 13.7299 29.1102 14.2483 28.6336C14.6203 28.2917 14.9354 27.903 15.1847 27.48C15.348 27.2029 15.205 26.8751 14.904 26.7644C14.601 26.653 14.2537 26.8046 14.0795 27.0782C13.8959 27.3667 13.6724 27.6332 13.414 27.8708C13.0075 28.2444 12.523 28.5389 11.9893 28.7367C11.4557 28.9345 10.884 29.0314 10.3085 29.0217C9.91885 29.0151 9.53292 28.9598 9.16125 28.8578C8.86676 28.777 8.53241 28.9009 8.39944 29.1732Z" fill="white"/>
<path fill-rule="evenodd" clip-rule="evenodd" d="M22.5923 1.84245C23.6461 1.1839 25.0342 1.50431 25.6927 2.5581L31.399 11.6892L32.0351 12.707L32.6711 11.6892L38.3774 2.5581C39.0359 1.50431 40.4241 1.1839 41.4778 1.84245C42.5316 2.50099 42.852 3.88911 42.1935 4.9429L34.399 17.4154L34.2851 17.5978V17.8129V28.2515C34.2851 29.4941 33.2777 30.5015 32.0351 30.5015C30.7924 30.5015 29.7851 29.4941 29.7851 28.2515V17.8129V17.5978L29.6711 17.4154L21.8766 4.9429C21.2181 3.88911 21.5385 2.50099 22.5923 1.84245ZM26.9648 1.76317C25.8672 0.00684965 23.5537 -0.527167 21.7973 0.570408C20.041 1.66798 19.507 3.98152 20.6046 5.73784L28.2851 18.028V28.2515C28.2851 30.3226 29.964 32.0015 32.0351 32.0015C34.1061 32.0015 35.7851 30.3226 35.7851 28.2515V18.028L43.4655 5.73784C44.5631 3.98152 44.0291 1.66798 42.2728 0.570408C40.5165 -0.527167 38.2029 0.00684953 37.1054 1.76317L32.0351 9.87654L26.9648 1.76317ZM41.6249 4.50948C41.5817 4.76986 41.2831 4.8484 41.0568 4.71488L40.839 4.58641C40.733 4.52385 40.7019 4.38474 40.714 4.26157C40.7214 4.18634 40.7133 4.10923 40.6901 4.03465C40.667 3.96007 40.6292 3.88948 40.5791 3.82692C40.5289 3.76435 40.4673 3.71102 40.3978 3.66999C40.3282 3.62896 40.2521 3.60102 40.1738 3.58777C40.0954 3.57452 40.0164 3.57622 39.9412 3.59277C39.866 3.60932 39.7961 3.6404 39.7355 3.68423C39.6363 3.75598 39.502 3.7975 39.396 3.73494L39.1783 3.60647C38.952 3.47296 38.871 3.17045 39.072 3.00317C39.0954 2.98367 39.1196 2.96493 39.1444 2.94697C39.2988 2.83531 39.4769 2.75615 39.6684 2.71399C39.86 2.67183 40.0613 2.6675 40.2608 2.70125C40.4604 2.73501 40.6542 2.80618 40.8314 2.9107C41.0085 3.01523 41.1655 3.15106 41.2933 3.31045C41.4211 3.46984 41.5172 3.64965 41.5762 3.83964C41.6351 4.02962 41.6558 4.22604 41.637 4.4177C41.634 4.44853 41.6299 4.47914 41.6249 4.50948Z" fill="black"/>
<path fill-rule="evenodd" clip-rule="evenodd" d="M22.5923 1.84245C23.6461 1.1839 25.0342 1.50431 25.6927 2.5581L31.399 11.6892L32.0351 12.707L32.6711 11.6892L38.3774 2.5581C39.0359 1.50431 40.4241 1.1839 41.4778 1.84245C42.5316 2.50099 42.852 3.88911 42.1935 4.9429L34.399 17.4154L34.2851 17.5978V17.8129V28.2515C34.2851 29.4941 33.2777 30.5015 32.0351 30.5015C30.7924 30.5015 29.7851 29.4941 29.7851 28.2515V17.8129V17.5978L29.6711 17.4154L21.8766 4.9429C21.2181 3.88911 21.5385 2.50099 22.5923 1.84245ZM41.0568 4.71488C41.2831 4.8484 41.5817 4.76986 41.6249 4.50948C41.6299 4.47914 41.634 4.44853 41.637 4.4177C41.6558 4.22604 41.6351 4.02962 41.5762 3.83964C41.5172 3.64965 41.4211 3.46984 41.2933 3.31045C41.1655 3.15106 41.0085 3.01523 40.8314 2.9107C40.6542 2.80618 40.4604 2.73501 40.2608 2.70125C40.0613 2.6675 39.86 2.67183 39.6684 2.71399C39.4769 2.75615 39.2988 2.83531 39.1444 2.94697C39.1196 2.96493 39.0954 2.98367 39.072 3.00317C38.871 3.17045 38.952 3.47296 39.1783 3.60647L39.396 3.73494C39.502 3.7975 39.6363 3.75598 39.7355 3.68423C39.7961 3.6404 39.866 3.60932 39.9412 3.59277C40.0164 3.57622 40.0954 3.57452 40.1738 3.58777C40.2521 3.60102 40.3282 3.62896 40.3978 3.66999C40.4673 3.71102 40.5289 3.76435 40.5791 3.82692C40.6292 3.88948 40.667 3.96007 40.6901 4.03465C40.7133 4.10923 40.7214 4.18634 40.714 4.26157C40.7019 4.38474 40.733 4.52385 40.839 4.58641L41.0568 4.71488Z" fill="white"/>
</g>
<defs>
<clipPath id="clip0_781_10">
<rect width="45" height="33" fill="white"/>
</clipPath>
</defs>
</svg>
