<svg width="45" height="33" viewBox="0 0 45 33" fill="none" xmlns="http://www.w3.org/2000/svg">
<path fill-rule="evenodd" clip-rule="evenodd" d="M17.9971 3.0752C17.9971 1.41834 16.654 0.0751953 14.9971 0.0751953C13.3403 0.0751953 11.9971 1.41834 11.9971 3.0752V23.5691C11.9971 24.2718 11.622 25.0388 10.8066 25.5569C9.76955 26.2157 8.52312 26.2207 7.51416 25.7363C6.51207 25.2552 6 24.4415 6 23.5691V19.8432C6 18.1864 4.65685 16.8432 3 16.8432C1.34315 16.8432 0 18.1864 0 19.8432V23.5691C0 27.134 2.20648 29.8439 4.9175 31.1453C7.62165 32.4435 11.0829 32.4898 14.024 30.6213C16.4427 29.0847 17.9971 26.4738 17.9971 23.5691V3.0752Z" fill="black"/>
<path d="M8.39956 29.173C8.26659 29.4453 8.38535 29.7619 8.67714 29.8503C9.19594 30.0073 9.73856 30.0923 10.2869 30.1016C11.0211 30.114 11.7503 29.9903 12.4311 29.738C13.1118 29.4857 13.73 29.11 14.2484 28.6334C14.6204 28.2915 14.9355 27.9028 15.1848 27.4798C15.3481 27.2027 15.2051 26.8749 14.9041 26.7642V26.7642C14.6011 26.6528 14.2538 26.8044 14.0796 27.078C13.896 27.3665 13.6725 27.633 13.4141 27.8706C13.0076 28.2442 12.5231 28.5387 11.9894 28.7365C11.4558 28.9343 10.8841 29.0312 10.3086 29.0215C9.91897 29.0149 9.53304 28.9596 9.16137 28.8576C8.86688 28.7768 8.53253 28.9007 8.39956 29.173V29.173Z" fill="white"/>
<path fill-rule="evenodd" clip-rule="evenodd" d="M22.5923 1.84245C23.6461 1.1839 25.0342 1.50431 25.6927 2.5581L31.399 11.6892L32.0351 12.707L32.6711 11.6892L38.3774 2.5581C39.0359 1.50431 40.4241 1.1839 41.4778 1.84245C42.5316 2.50099 42.852 3.88911 42.1935 4.9429L34.399 17.4154L34.2851 17.5978V17.8129V28.2515C34.2851 29.4941 33.2777 30.5015 32.0351 30.5015C30.7924 30.5015 29.7851 29.4941 29.7851 28.2515V17.8129V17.5978L29.6711 17.4154L21.8766 4.9429C21.2181 3.88911 21.5385 2.50099 22.5923 1.84245ZM26.9648 1.76317C25.8672 0.00684978 23.5537 -0.527167 21.7973 0.570408C20.041 1.66798 19.507 3.98152 20.6046 5.73784L28.2851 18.028V28.2515C28.2851 30.3226 29.964 32.0015 32.0351 32.0015C34.1061 32.0015 35.7851 30.3226 35.7851 28.2515V18.028L43.4655 5.73784C44.5631 3.98152 44.0291 1.66798 42.2728 0.570408C40.5165 -0.527167 38.2029 0.00684966 37.1054 1.76317L32.0351 9.87654L26.9648 1.76317ZM41.6249 4.50948C41.5817 4.76986 41.2831 4.8484 41.0568 4.71488L40.839 4.58641C40.733 4.52385 40.7019 4.38474 40.714 4.26157C40.7214 4.18634 40.7133 4.10923 40.6901 4.03465C40.667 3.96007 40.6292 3.88948 40.5791 3.82692C40.5289 3.76435 40.4673 3.71103 40.3978 3.66999C40.3282 3.62896 40.2521 3.60102 40.1738 3.58777C40.0954 3.57452 40.0164 3.57622 39.9412 3.59277C39.866 3.60932 39.7961 3.6404 39.7355 3.68423C39.6363 3.75598 39.502 3.7975 39.396 3.73494L39.1783 3.60647C38.952 3.47296 38.871 3.17045 39.072 3.00317C39.0954 2.98367 39.1196 2.96493 39.1444 2.94697C39.2988 2.83531 39.4769 2.75615 39.6684 2.71399C39.86 2.67183 40.0613 2.6675 40.2608 2.70125C40.4604 2.73501 40.6542 2.80618 40.8314 2.9107C41.0085 3.01523 41.1655 3.15106 41.2933 3.31045C41.4211 3.46984 41.5172 3.64965 41.5762 3.83964C41.6351 4.02962 41.6558 4.22604 41.637 4.4177C41.634 4.44853 41.6299 4.47914 41.6249 4.50948Z" fill="black"/>
</svg>
