<svg width="256" height="256" viewBox="0 0 256 256" fill="none" xmlns="http://www.w3.org/2000/svg">
<rect x="10" y="41" width="235" height="175" rx="8" fill="#F8F3EE"/>
<path fill-rule="evenodd" clip-rule="evenodd" d="M116.945 96.4994C116.945 92.3576 113.591 89 109.453 89C105.315 89 101.961 92.3576 101.961 96.4994V147.73C101.961 149.487 101.024 151.404 98.9876 152.699C96.3978 154.346 93.285 154.359 90.7653 153.148C88.2628 151.945 86.984 149.911 86.984 147.73V138.416C86.984 134.275 83.6297 130.917 79.492 130.917C75.3543 130.917 72 134.275 72 138.416V147.73C72 156.642 77.5103 163.416 84.2806 166.669C91.0338 169.915 99.6777 170.03 107.023 165.36C113.063 161.518 116.945 154.992 116.945 147.73V96.4994Z" fill="black"/>
<path fill-rule="evenodd" clip-rule="evenodd" d="M128.448 93.6058C131.08 91.9595 134.546 92.7605 136.191 95.3948L152.03 120.765L167.869 95.3948C169.513 92.7605 172.98 91.9595 175.611 93.6058C178.243 95.252 179.043 98.722 177.399 101.356L157.649 132.991V159.623C157.649 162.73 155.133 165.248 152.03 165.248C148.927 165.248 146.411 162.73 146.411 159.623V132.991L126.661 101.356C125.016 98.722 125.816 95.252 128.448 93.6058ZM139.368 93.4076C136.627 89.0171 130.849 87.6822 126.463 90.4259C122.077 93.1696 120.743 98.9531 123.484 103.344L142.665 134.067V159.623C142.665 164.801 146.858 168.998 152.03 168.998C157.202 168.998 161.395 164.801 161.395 159.623V134.067L180.575 103.344C183.317 98.9531 181.983 93.1696 177.597 90.4259C173.211 87.6822 167.433 89.0171 164.692 93.4076L152.03 113.689L139.368 93.4076ZM175.979 100.273C175.871 100.924 175.125 101.12 174.56 100.786L174.016 100.465C173.751 100.309 173.674 99.961 173.704 99.6531C173.723 99.4651 173.702 99.2723 173.644 99.0859C173.587 98.8994 173.492 98.723 173.367 98.5666C173.242 98.4102 173.088 98.2769 172.914 98.1743C172.741 98.0717 172.551 98.0019 172.355 97.9687C172.159 97.9356 171.962 97.9399 171.774 97.9812C171.586 98.0226 171.412 98.1003 171.26 98.2099C171.013 98.3892 170.677 98.493 170.413 98.3366L169.869 98.0155C169.304 97.6817 169.101 96.9255 169.603 96.5074C169.662 96.4586 169.722 96.4118 169.784 96.3669C170.17 96.0877 170.615 95.8899 171.093 95.7845C171.571 95.6791 172.074 95.6682 172.572 95.7526C173.071 95.837 173.555 96.0149 173.997 96.2762C174.44 96.5375 174.832 96.8771 175.151 97.2755C175.47 97.6739 175.71 98.1234 175.857 98.5984C176.004 99.0733 176.056 99.5643 176.009 100.043C176.002 100.12 175.991 100.197 175.979 100.273Z" fill="black"/>
<path d="M92.9814 161.757C92.6493 162.436 92.9459 163.225 93.6748 163.446C94.9708 163.837 96.3262 164.049 97.696 164.072C99.53 164.103 101.352 163.795 103.052 163.166C104.752 162.536 106.297 161.599 107.592 160.411C108.521 159.558 109.308 158.589 109.931 157.534C110.339 156.843 109.981 156.025 109.23 155.749C108.473 155.471 107.605 155.849 107.17 156.532C106.711 157.251 106.153 157.916 105.508 158.508C104.492 159.44 103.282 160.175 101.949 160.668C100.616 161.161 99.1878 161.403 97.7502 161.379C96.7769 161.362 95.8128 161.224 94.8844 160.97C94.1488 160.768 93.3136 161.077 92.9814 161.757Z" fill="white"/>
<path fill-rule="evenodd" clip-rule="evenodd" d="M128.435 93.595C131.067 91.9526 134.534 92.7517 136.179 95.3798L152.022 120.691L167.865 95.3798C169.51 92.7517 172.978 91.9526 175.61 93.595C178.242 95.2374 179.043 98.6993 177.398 101.327L157.643 132.888V159.458C157.643 162.557 155.126 165.069 152.022 165.069C148.918 165.069 146.402 162.557 146.402 159.458V132.888L126.647 101.327C125.002 98.6993 125.802 95.2374 128.435 93.595ZM174.558 100.759C175.124 101.092 175.869 100.896 175.977 100.246C175.99 100.171 176 100.094 176.008 100.018C176.054 99.5396 176.003 99.0497 175.856 98.5759C175.708 98.1021 175.468 97.6536 175.149 97.2561C174.83 96.8586 174.438 96.5199 173.995 96.2592C173.553 95.9985 173.068 95.821 172.57 95.7368C172.071 95.6526 171.569 95.6634 171.09 95.7686C170.612 95.8737 170.167 96.0712 169.781 96.3496C169.719 96.3944 169.659 96.4412 169.6 96.4898C169.098 96.907 169.301 97.6614 169.866 97.9944L170.41 98.3148C170.674 98.4708 171.01 98.3673 171.258 98.1883C171.409 98.079 171.584 98.0015 171.771 97.9602C171.959 97.919 172.157 97.9147 172.353 97.9478C172.548 97.9808 172.738 98.0505 172.912 98.1528C173.086 98.2551 173.24 98.3881 173.365 98.5442C173.49 98.7002 173.585 98.8763 173.642 99.0623C173.7 99.2483 173.72 99.4406 173.702 99.6282C173.672 99.9354 173.749 100.282 174.014 100.438L174.558 100.759Z" fill="white"/>
</svg>
