<svg width="64" height="64" viewBox="0 0 64 64" fill="none" xmlns="http://www.w3.org/2000/svg">
<path fill-rule="evenodd" clip-rule="evenodd" d="M57.0409 12.3707C59.7823 13.1087 61.9437 15.2702 62.6818 18.0115C64.0524 23.0197 63.9997 33.4579 63.9997 33.4579C63.9997 33.4579 63.9997 43.8434 62.6818 48.8516C61.9437 51.5929 59.7823 53.7544 57.0409 54.4924C52.0327 55.8104 31.9999 55.8104 31.9999 55.8104C31.9999 55.8104 12.0197 55.8104 6.95878 54.4397C4.21744 53.7016 2.056 51.5402 1.31795 48.7989C0 43.8434 0 33.4052 0 33.4052C0 33.4052 0 23.0197 1.31795 18.0115C2.056 15.2702 4.27016 13.056 6.95878 12.318C11.967 11 31.9999 11 31.9999 11C31.9999 11 52.0327 11 57.0409 12.3707ZM25.6206 23.8103L42.2795 33.405L25.6206 42.9997V23.8103Z" fill="black"/>
</svg>
