<svg width="24" height="25" viewBox="0 0 24 25" fill="none" xmlns="http://www.w3.org/2000/svg">
<path fill-rule="evenodd" clip-rule="evenodd" d="M12.9697 4.46967C13.2626 4.17678 13.7374 4.17678 14.0303 4.46967L21.5303 11.9697C21.671 12.1103 21.75 12.3011 21.75 12.5C21.75 12.6989 21.671 12.8897 21.5303 13.0303L14.0303 20.5303C13.7374 20.8232 13.2626 20.8232 12.9697 20.5303C12.6768 20.2374 12.6768 19.7626 12.9697 19.4697L19.1893 13.25H3C2.58579 13.25 2.25 12.9142 2.25 12.5C2.25 12.0858 2.58579 11.75 3 11.75H19.1893L12.9697 5.53033C12.6768 5.23744 12.6768 4.76256 12.9697 4.46967Z" fill="white"/>
</svg>
