<svg width="48" height="48" viewBox="0 0 48 48" fill="none" xmlns="http://www.w3.org/2000/svg">
<path d="M24 7C21.4477 7 19.0332 7.58018 16.858 8.59375C16.8437 8.58958 16.8291 8.5846 16.8148 8.58047L16.8016 8.62363C11.0232 11.3427 7 17.2062 7 24C7 33.3687 14.6313 41 24 41C33.3687 41 41 33.3687 41 24C41 14.6313 33.3687 7 24 7ZM24 10.4C26.9179 10.4 29.4656 11.5121 31.6766 13.0662C30.6029 14.1332 29.3525 15.0769 27.9744 15.8453C26.1702 13.6695 23.9748 11.937 21.6658 10.6391C22.4224 10.4984 23.1943 10.4 24 10.4ZM17.2598 12.3457C19.8941 13.3369 22.5407 14.9633 24.6707 17.2531C21.1344 18.327 17.0832 18.262 13.0164 16.3932C14.1453 14.765 15.5884 13.3818 17.2598 12.3457ZM34.2232 15.2676C35.6811 16.9765 36.597 19.0478 37.0654 21.3371C35.1565 21.1022 33.2094 21.2133 31.3014 21.5994C30.9138 20.5507 30.442 19.5597 29.9035 18.6277C31.5075 17.6807 32.9672 16.5443 34.2232 15.2676ZM11.2998 19.5309C16.7053 22.1186 22.187 21.9317 26.8422 20.1219C27.2997 20.8883 27.7007 21.7003 28.0342 22.5623C22.707 24.6457 18.1242 29.0313 16.3068 34.9271C12.8187 32.4691 10.4 28.6075 10.4 24C10.4 22.413 10.804 20.9449 11.2998 19.5309ZM33.9609 24.6574C35.1264 24.6364 36.2632 24.8369 37.3908 25.0359C37.0505 29.3504 34.7689 33.1035 31.401 35.3588C32.1835 33.1006 32.7868 30.1292 32.4303 26.5068C32.3762 25.9581 32.2925 25.4251 32.1979 24.8998C32.3944 24.86 32.5886 24.7925 32.7855 24.7604C33.1812 24.6958 33.5725 24.6644 33.9609 24.6574ZM28.9141 25.9291C28.9609 26.2318 29.0162 26.5305 29.0469 26.8422C29.6209 32.675 27.5936 36.1674 26.8057 37.2979C25.9024 37.4897 24.9664 37.6 24 37.6C22.3459 37.6 20.8058 37.2004 19.3416 36.6637C20.6342 31.6587 24.472 27.8413 28.9141 25.9291Z" fill="#ADAEB3"/>
</svg>
