<svg width="32" height="32" viewBox="0 0 32 32" fill="none" xmlns="http://www.w3.org/2000/svg">
<path d="M16 0C7.18269 0 0 7.18269 0 16C0 24.8173 7.18269 32 16 32C24.8173 32 32 24.8173 32 16C32 7.18269 24.8173 0 16 0ZM16 2.46154C19.2115 2.46154 22.1538 3.57692 24.4712 5.44231C23.2981 6.88462 21.1346 8.89423 17.5096 10.2115C15.5385 6.65385 13.8942 4.375 12.75 2.86539C13.7885 2.61538 14.875 2.46154 16 2.46154ZM10.3077 3.73077C11.2692 4.97115 13.0096 7.29808 15.0769 10.9423C9.75962 12.3365 4.96154 12.4231 2.96154 12.3654C4.02885 8.51923 6.74038 5.375 10.3077 3.73077ZM26.2404 7.15385C28.2885 9.52885 29.5385 12.6154 29.5385 16C29.5385 16.5096 29.5096 17 29.4519 17.4904C29.0096 17.4327 28.6731 17.375 28.1058 17.3269C26.2019 17.1827 23.6731 17.1827 20.9423 17.5865C20.2308 15.7308 19.4423 14.0192 18.6346 12.4135C22.4423 10.9615 24.8462 8.81731 26.2404 7.15385ZM16.25 13.1731C17.0288 14.6923 17.7788 16.3269 18.4808 18.0769C15.2404 19.0385 12.2981 21.2308 10.0385 23.2692C8.82692 24.3462 7.83654 25.375 7.09616 26.1827C4.25962 23.7019 2.46154 20.0673 2.46154 16C2.46154 15.5962 2.49039 15.2115 2.51923 14.8173C4.26923 14.8942 9.875 14.9423 16.25 13.1731ZM24.3942 19.7115C26.2885 19.6442 27.7788 19.7692 28.9615 19.9038C28.0673 22.9135 26.1538 25.4712 23.625 27.1923C23.2212 24.6635 22.5865 22.2308 21.8269 19.9423C22.7115 19.8269 23.5769 19.75 24.3942 19.7115ZM19.3654 20.3942C20.2404 22.9231 20.9327 25.625 21.3269 28.4519C19.6923 29.1442 17.8942 29.5385 16 29.5385C13.4712 29.5385 11.125 28.8365 9.09616 27.6442C9.77885 26.9135 10.625 26.0288 11.6731 25.0962C13.8462 23.1442 16.6827 21.1538 19.3654 20.3942Z" fill="#ADAEB3"/>
</svg>
