<svg width="34" height="34" viewBox="0 0 34 34" fill="none" xmlns="http://www.w3.org/2000/svg">
<path d="M21.25 26.4662V31.5C17.45 34.5513 14 32.7714 12.75 31.5V28.05H11.4152C10.3952 28.05 9.49313 27.3364 9.05283 26.5442C8.63585 25.7857 8.51649 24.6823 7.71855 23.8663V23.8663C7.35077 23.4902 7.62857 22.9281 8.1077 23.1452C8.13043 23.1555 8.15296 23.1664 8.17528 23.1779C8.69336 23.4457 9.15336 23.8694 9.58906 24.4292C10.1849 25.1848 10.6133 25.6328 11.7157 25.6328H12.833C13.0877 24.3729 13.9192 23.3346 15.0294 22.7624C13.6929 22.5061 12.454 21.9944 11.4189 21.2711C10.3837 20.5479 9.5833 19.6346 9.08613 18.6095C8.58896 17.5845 8.40989 16.4783 8.56427 15.3858C8.71866 14.2933 9.2019 13.247 9.97256 12.3366C9.59218 11.5298 8.88225 9.55297 10.0307 7.71472C11.9563 7.71472 13.2003 9.03188 13.7959 9.85466C14.8131 9.52234 15.9012 9.35095 17 9.34998C18.0981 9.35287 19.185 9.52595 20.2008 9.85964C20.795 9.03725 22.0399 7.71472 23.9693 7.71472C24.97 9.31655 24.5489 11.3521 24.1719 12.5126C24.8937 13.4269 25.3326 14.4657 25.4521 15.5429C25.5715 16.6201 25.3682 17.7045 24.8588 18.7062C24.3494 19.7079 23.5487 20.598 22.5233 21.3026C21.4978 22.0071 20.277 22.5059 18.9623 22.7574C20.3144 23.4503 21.25 24.8426 21.25 26.4662Z" fill="#ADAEB3"/>
<path fill-rule="evenodd" clip-rule="evenodd" d="M17 2.8C9.17265 2.8 2.8 9.17266 2.8 17C2.8 24.8273 9.17265 31.2 17 31.2C24.8273 31.2 31.2 24.8273 31.2 17C31.2 9.17266 24.8273 2.8 17 2.8ZM0 17C0 7.62626 7.62626 0 17 0C26.3737 0 34 7.62626 34 17C34 26.3737 26.3737 34 17 34C7.62626 34 0 26.3737 0 17Z" fill="#ADAEB3"/>
</svg>
