<svg width="32" height="32" viewBox="0 0 32 32" fill="none" xmlns="http://www.w3.org/2000/svg">
<path d="M9.41875 0C0.684349 0 0 0.683549 0 9.41875V22.5813C0 31.3157 0.684349 32 9.41875 32H22.5813C31.3157 32 32 31.3165 32 22.5813V9.41875C32 0.683549 31.3165 0 22.5813 0H9.41875ZM7.33437 3.2H24.6656C28.5 3.2 28.8 3.49997 28.8 7.33437V24.6656C28.8 28.5 28.4992 28.8 24.6656 28.8H7.33437C3.49997 28.8 3.2 28.4992 3.2 24.6656V7.33437C3.2 3.49997 3.49997 3.2 7.33437 3.2Z" fill="#ADAEB3"/>
<path d="M7 9.16568C7 7.97015 7.97205 7 9.17145 7C10.3679 7 11.34 7.97162 11.34 9.16568C11.34 10.362 10.3679 11.3328 9.17145 11.3328C7.97131 11.3328 7 10.3612 7 9.16568Z" fill="#ADAEB3"/>
<path d="M17.0102 14.6768C17.5072 13.7369 18.7222 12.745 20.5334 12.745C24.3039 12.745 25 15.2213 25 18.4412V25H21.2783V19.1861C21.2783 17.7995 21.2541 16.0144 19.3442 16.0144C17.407 16.0144 17.108 17.5242 17.108 19.0842V25H13.3878V13.0435H16.9585V14.6768H17.0102Z" fill="#ADAEB3"/>
<path d="M7.30918 25V13.0435H11.0323V25H7.30918Z" fill="#ADAEB3"/>
</svg>
