<svg width="47" height="32" viewBox="0 0 47 32" fill="none" xmlns="http://www.w3.org/2000/svg">
<path fill-rule="evenodd" clip-rule="evenodd" d="M11.9486 26.1199C10.5573 26.7952 9.85991 26.7952 8.33468 26.3887C6.72931 25.6969 6.18615 25.0389 6.18615 23.5121V19.7952C6.18615 18.9688 6.18615 17.9565 3.88952 17.9565C1.66694 17.9565 1.66694 18.9688 1.66694 19.7952V23.5121C1.66694 26.3926 3.6433 28.6252 6.18615 29.721C8.72191 30.8138 11.9529 30.8457 14.6909 29.2842L15.5847 30.5472C12.3163 32.4112 8.46986 32.365 5.46477 31.07C2.45204 29.7717 0 27.0684 0 23.5121V19.7952C0 18.1424 1.11129 16.4601 3.88952 16.4601C6.66774 16.4601 7.85309 18.1424 7.85309 19.7952V23.5121C7.85309 24.3824 7.95818 24.5559 9.0718 25.0358C10.0016 25.2989 10.1433 25.2989 11.0548 24.8568C11.9609 24.34 11.9486 24.2131 11.9486 23.5121V3.06776C11.9486 1.41491 13.3355 0 16.1137 0C18.8919 0 20 1.41491 20 3.06776V23.5121C20 26.4098 18.2726 29.0143 15.5847 30.5472L14.6909 29.2842C16.9346 28.0046 18.3331 25.8592 18.3331 23.5121V3.06776C18.3331 2.24132 17.7806 1.49637 16.1137 1.49637C14.4468 1.49637 13.6155 2.24135 13.6155 3.06776V13.2899V23.5121C13.6155 24.7575 13.3049 25.3463 11.9486 26.1199Z" fill="black"/>
<path fill-rule="evenodd" clip-rule="evenodd" d="M13.9052 28.8999C13.3598 29.1487 12.6692 29.4636 11.9486 29.539C11.2403 29.6131 10.5305 29.5709 9.85991 29.4121C9.56318 29.3419 9.38608 29.069 9.46434 28.8026C9.5426 28.5363 9.84659 28.3773 10.1433 28.4475C10.6742 28.5732 11.2439 28.6084 11.82 28.5481C12.3384 28.4939 12.8697 28.2524 13.4757 27.9769L13.4934 27.9688C14.0218 27.7286 14.497 27.4082 14.892 27.027C15.2871 26.6458 15.5927 26.2127 15.794 25.7542C15.9065 25.4979 16.2291 25.372 16.5146 25.473C16.8002 25.574 16.9404 25.8636 16.8279 26.1199C16.5736 26.6991 16.1914 27.2377 15.7057 27.7064C15.2201 28.1751 14.6389 28.5663 13.9955 28.8588C13.9659 28.8722 13.9358 28.886 13.9052 28.8999Z" fill="black"/>
<path fill-rule="evenodd" clip-rule="evenodd" d="M11.9486 26.1199C10.5573 26.7952 9.85991 26.7952 8.33468 26.3887C6.72931 25.6969 6.18615 25.0389 6.18615 23.5121V19.7952C6.18615 18.9688 6.18615 17.9565 3.88952 17.9565C1.66694 17.9565 1.66694 18.9688 1.66694 19.7952V23.5121C1.66694 26.3926 3.6433 28.6252 6.18615 29.721C8.72191 30.8138 11.9529 30.8457 14.6909 29.2842C16.9346 28.0046 18.3331 25.8592 18.3331 23.5121V3.06776C18.3331 2.24132 17.7806 1.49637 16.1137 1.49637C14.4468 1.49637 13.6155 2.24135 13.6155 3.06776V13.2899V23.5121C13.6155 24.7575 13.3049 25.3463 11.9486 26.1199ZM13.9052 28.8999C13.3598 29.1487 12.6692 29.4636 11.9486 29.539C11.2403 29.6131 10.5305 29.5709 9.85991 29.4121C9.56318 29.3419 9.38608 29.069 9.46434 28.8026C9.5426 28.5363 9.84659 28.3773 10.1433 28.4475C10.6742 28.5732 11.2439 28.6084 11.82 28.5481C12.3384 28.4939 12.8697 28.2524 13.4757 27.9769L13.4934 27.9688C14.0218 27.7286 14.497 27.4082 14.892 27.027C15.2871 26.6458 15.5927 26.2127 15.794 25.7542C15.9065 25.4979 16.2291 25.372 16.5146 25.473C16.8002 25.574 16.9404 25.8636 16.8279 26.1199C16.5736 26.6991 16.1914 27.2377 15.7057 27.7064C15.2201 28.1751 14.6389 28.5663 13.9955 28.8588L13.9052 28.8999Z" fill="white"/>
<path fill-rule="evenodd" clip-rule="evenodd" d="M24.5923 1.84245C25.6461 1.1839 27.0342 1.50431 27.6927 2.5581L33.399 11.6892L34.0351 12.707L34.6711 11.6892L40.3774 2.5581C41.0359 1.50431 42.4241 1.1839 43.4778 1.84245C44.5316 2.50099 44.852 3.88911 44.1935 4.9429L36.399 17.4154L36.2851 17.5978V17.8129V28.2515C36.2851 29.4941 35.2777 30.5015 34.0351 30.5015C32.7924 30.5015 31.7851 29.4941 31.7851 28.2515V17.8129V17.5978L31.6711 17.4154L23.8766 4.9429C23.2181 3.88911 23.5385 2.50099 24.5923 1.84245ZM28.9648 1.76317C27.8672 0.00684953 25.5537 -0.527167 23.7973 0.570408C22.041 1.66798 21.507 3.98152 22.6046 5.73784L30.2851 18.028V28.2515C30.2851 30.3226 31.964 32.0015 34.0351 32.0015C36.1061 32.0015 37.7851 30.3226 37.7851 28.2515V18.028L45.4655 5.73784C46.5631 3.98152 46.0291 1.66798 44.2728 0.570408C42.5165 -0.527167 40.2029 0.00684941 39.1054 1.76317L34.0351 9.87654L28.9648 1.76317ZM43.6249 4.50948C43.5817 4.76986 43.2831 4.8484 43.0568 4.71488L42.839 4.58641C42.733 4.52385 42.7019 4.38474 42.714 4.26157C42.7214 4.18634 42.7133 4.10923 42.6901 4.03465C42.667 3.96007 42.6292 3.88948 42.5791 3.82692C42.5289 3.76435 42.4673 3.71102 42.3978 3.66999C42.3282 3.62896 42.2521 3.60102 42.1738 3.58777C42.0954 3.57452 42.0164 3.57622 41.9412 3.59277C41.866 3.60932 41.7961 3.6404 41.7355 3.68423C41.6363 3.75598 41.502 3.7975 41.396 3.73494L41.1783 3.60647C40.952 3.47296 40.871 3.17045 41.072 3.00317C41.0954 2.98367 41.1196 2.96493 41.1444 2.94697C41.2988 2.83531 41.4769 2.75615 41.6684 2.71399C41.86 2.67183 42.0613 2.6675 42.2608 2.70125C42.4604 2.73501 42.6542 2.80618 42.8314 2.9107C43.0085 3.01523 43.1655 3.15106 43.2933 3.31045C43.4211 3.46984 43.5172 3.64965 43.5762 3.83964C43.6351 4.02962 43.6558 4.22604 43.637 4.4177C43.634 4.44853 43.6299 4.47914 43.6249 4.50948Z" fill="black"/>
<path fill-rule="evenodd" clip-rule="evenodd" d="M24.5923 1.84249C25.6461 1.18394 27.0342 1.50435 27.6927 2.55814L33.399 11.6892L34.0351 12.707L34.6711 11.6892L40.3774 2.55814C41.0359 1.50435 42.4241 1.18394 43.4778 1.84249C44.5316 2.50103 44.852 3.88915 44.1935 4.94294L36.399 17.4154L36.2851 17.5978V17.8129V28.2515C36.2851 29.4941 35.2777 30.5015 34.0351 30.5015C32.7924 30.5015 31.7851 29.4941 31.7851 28.2515V17.8129V17.5978L31.6711 17.4154L23.8766 4.94294C23.2181 3.88915 23.5385 2.50103 24.5923 1.84249ZM43.0568 4.71492C43.2831 4.84844 43.5817 4.7699 43.6249 4.50952C43.6299 4.47918 43.634 4.44857 43.637 4.41774C43.6558 4.22608 43.6351 4.02966 43.5762 3.83968C43.5172 3.64969 43.4211 3.46988 43.2933 3.31049C43.1655 3.1511 43.0085 3.01527 42.8314 2.91074C42.6542 2.80622 42.4604 2.73505 42.2608 2.70129C42.0613 2.66754 41.86 2.67187 41.6684 2.71403C41.4769 2.75619 41.2988 2.83535 41.1444 2.94701C41.1196 2.96497 41.0954 2.98371 41.072 3.00321C40.871 3.17049 40.952 3.473 41.1783 3.60651L41.396 3.73498C41.502 3.79754 41.6363 3.75602 41.7355 3.68427C41.7961 3.64044 41.866 3.60936 41.9412 3.59281C42.0164 3.57626 42.0954 3.57456 42.1738 3.58781C42.2521 3.60106 42.3282 3.629 42.3978 3.67003C42.4673 3.71106 42.5289 3.76439 42.5791 3.82696C42.6292 3.88952 42.667 3.96011 42.6901 4.03469C42.7133 4.10927 42.7214 4.18638 42.714 4.26161C42.7019 4.38478 42.733 4.52389 42.839 4.58645L43.0568 4.71492Z" fill="white"/>
</svg>
