<svg width="36" height="29" viewBox="0 0 36 29" fill="none" xmlns="http://www.w3.org/2000/svg">
<path d="M14.087 20.8255V9.14769L24.8478 14.9866L14.087 20.8255Z" fill="#ADAEB3"/>
<path fill-rule="evenodd" clip-rule="evenodd" d="M33.1435 20.4359V8.56411C33.1435 5.59592 30.7794 3.16978 27.8171 3.09785L18 2.85946L8.18292 3.09785C5.22058 3.16978 2.85652 5.59592 2.85652 8.56412V20.4359C2.85652 23.4041 5.22058 25.8302 8.18292 25.9021L18 26.1405L27.8171 25.9021C30.7794 25.8302 33.1435 23.4041 33.1435 20.4359ZM18 28.6106L8.12318 28.3708C3.823 28.2664 0.391304 24.7446 0.391304 20.4359V8.56412C0.391304 4.25545 3.823 0.733637 8.12318 0.629215L18 0.389374L27.8768 0.629215C32.177 0.733637 35.6087 4.25544 35.6087 8.56411V20.4359C35.6087 24.7446 32.177 28.2664 27.8768 28.3708L18 28.6106Z" fill="#ADAEB3"/>
<path fill-rule="evenodd" clip-rule="evenodd" d="M13.6957 8.49197L25.665 14.9866L13.6957 21.4812V8.49197ZM18 29L8.11363 28.7599C3.59867 28.6503 0 24.9534 0 20.4359V8.56412C0 4.04662 3.59867 0.34971 8.11363 0.240072L18 0L27.8864 0.240072C32.4013 0.34971 36 4.04661 36 8.56411V20.4359C36 24.9534 32.4013 28.6503 27.8864 28.7599L18 29ZM14.087 20.8255L24.8478 14.9866L14.087 9.14769V20.8255ZM32.7522 20.4359V8.56411C32.7522 5.80475 30.5551 3.55371 27.8075 3.48699L18 3.24883L8.19247 3.48699C5.44492 3.55371 3.24783 5.80475 3.24783 8.56412V20.4359C3.24783 23.1953 5.44491 25.4463 8.19247 25.513L18 25.7512L27.8075 25.513C30.5551 25.4463 32.7522 23.1953 32.7522 20.4359ZM18 26.1405L8.18292 25.9021C5.22058 25.8302 2.85652 23.4041 2.85652 20.4359V8.56412C2.85652 5.59592 5.22058 3.16978 8.18292 3.09785L18 2.85946L27.8171 3.09785C30.7794 3.16978 33.1435 5.59592 33.1435 8.56411V20.4359C33.1435 23.4041 30.7794 25.8302 27.8171 25.9021L18 26.1405ZM18 28.6106L27.8768 28.3708C32.177 28.2664 35.6087 24.7446 35.6087 20.4359V8.56411C35.6087 4.25544 32.177 0.733637 27.8768 0.629215L18 0.389374L8.12318 0.629215C3.823 0.733637 0.391304 4.25545 0.391304 8.56412V20.4359C0.391304 24.7446 3.823 28.2664 8.12318 28.3708L18 28.6106Z" fill="#ADAEB3"/>
</svg>
